{
    "asset" : {
        "generator" : "Khronos glTF Blender I/O v0.9.36",
        "version" : "2.0"
    },
    "scene" : 0,
    "scenes" : [
        {
            "name" : "Scene",
            "nodes" : [
                0,
                1,
                2,
                3,
                4
            ]
        }
    ],
    "nodes" : [
        {
            "mesh" : 0,
            "name" : "Cube",
            "rotation" : [
                0,
                0.13052619993686676,
                0,
                0.9914448857307434
            ],
            "scale" : [
                2.5,
                2.5,
                2.5
            ],
            "translation" : [
                -0.007608461193740368,
                0,
                -0.002692602574825287
            ]
        },
        {
            "mesh" : 1,
            "name" : "Text",
            "rotation" : [
                0.4304593503475189,
                0.5609855055809021,
                -0.5609855651855469,
                0.43045932054519653
            ],
            "scale" : [
                3,
                3,
                3
            ],
            "translation" : [
                2.605801582336426,
                -0.8068807125091553,
                0.07017755508422852
            ]
        },
        {
            "mesh" : 2,
            "name" : "Text.001",
            "rotation" : [
                -0.09229613840579987,
                0.7010573744773865,
                -0.7010573744773865,
                -0.09229613095521927
            ],
            "scale" : [
                3,
                3,
                3
            ],
            "translation" : [
                0.12882083654403687,
                -0.9648345112800598,
                -2.6400675773620605
            ]
        },
        {
            "mesh" : 3,
            "name" : "Text.002",
            "rotation" : [
                -0.5609856247901917,
                0.430459201335907,
                -0.43045923113822937,
                -0.5609856247901917
            ],
            "scale" : [
                3,
                3,
                3
            ],
            "translation" : [
                -2.6015403270721436,
                -1.0006675720214844,
                0.06663769483566284
            ]
        },
        {
            "mesh" : 4,
            "name" : "Text.003",
            "rotation" : [
                0.7010573744773865,
                0.09229595959186554,
                -0.09229595959186554,
                0.7010573744773865
            ],
            "scale" : [
                3,
                3,
                3
            ],
            "translation" : [
                -0.1956256628036499,
                -0.8168602585792542,
                2.643693208694458
            ]
        }
    ],
    "materials" : [
        {
            "doubleSided" : true,
            "name" : "Material",
            "pbrMetallicRoughness" : {
                "baseColorFactor" : [
                    0,
                    0,
                    0,
                    1
                ],
                "metallicFactor" : 0,
                "roughnessFactor" : 0.4000000059604645
            }
        },
        {
            "doubleSided" : true,
            "name" : "Material.007",
            "pbrMetallicRoughness" : {
                "baseColorFactor" : [
                    1,
                    0.8235023617744446,
                    0,
                    1
                ],
                "metallicFactor" : 0,
                "roughnessFactor" : 0.5
            }
        },
        {
            "doubleSided" : true,
            "name" : "Material.006",
            "pbrMetallicRoughness" : {
                "baseColorFactor" : [
                    1,
                    0.8235026597976685,
                    0,
                    1
                ],
                "metallicFactor" : 0,
                "roughnessFactor" : 0.5
            }
        },
        {
            "doubleSided" : true,
            "name" : "Material.005",
            "pbrMetallicRoughness" : {
                "baseColorFactor" : [
                    1,
                    0.8235118985176086,
                    0,
                    1
                ],
                "metallicFactor" : 0,
                "roughnessFactor" : 0.5
            }
        },
        {
            "doubleSided" : true,
            "name" : "Material.001",
            "pbrMetallicRoughness" : {
                "baseColorFactor" : [
                    1,
                    0.8235023617744446,
                    0,
                    1
                ],
                "metallicFactor" : 0,
                "roughnessFactor" : 0.5
            }
        }
    ],
    "meshes" : [
        {
            "name" : "Cube",
            "primitives" : [
                {
                    "attributes" : {
                        "POSITION" : 0,
                        "NORMAL" : 1,
                        "TEXCOORD_0" : 2
                    },
                    "indices" : 3,
                    "material" : 0
                }
            ]
        },
        {
            "name" : "Text",
            "primitives" : [
                {
                    "attributes" : {
                        "POSITION" : 4,
                        "NORMAL" : 5
                    },
                    "indices" : 6,
                    "material" : 1
                }
            ]
        },
        {
            "name" : "Text.001",
            "primitives" : [
                {
                    "attributes" : {
                        "POSITION" : 7,
                        "NORMAL" : 8
                    },
                    "indices" : 9,
                    "material" : 2
                }
            ]
        },
        {
            "name" : "Text.002",
            "primitives" : [
                {
                    "attributes" : {
                        "POSITION" : 10,
                        "NORMAL" : 11
                    },
                    "indices" : 12,
                    "material" : 3
                }
            ]
        },
        {
            "name" : "Text.003",
            "primitives" : [
                {
                    "attributes" : {
                        "POSITION" : 13,
                        "NORMAL" : 14
                    },
                    "indices" : 15,
                    "material" : 4
                }
            ]
        }
    ],
    "accessors" : [
        {
            "bufferView" : 0,
            "componentType" : 5126,
            "count" : 24,
            "max" : [
                1,
                1,
                1
            ],
            "min" : [
                -1,
                -1,
                -1
            ],
            "type" : "VEC3"
        },
        {
            "bufferView" : 1,
            "componentType" : 5126,
            "count" : 24,
            "type" : "VEC3"
        },
        {
            "bufferView" : 2,
            "componentType" : 5126,
            "count" : 24,
            "type" : "VEC2"
        },
        {
            "bufferView" : 3,
            "componentType" : 5123,
            "count" : 36,
            "type" : "SCALAR"
        },
        {
            "bufferView" : 4,
            "componentType" : 5126,
            "count" : 4,
            "max" : [
                0.30000001192092896,
                0,
                0
            ],
            "min" : [
                0.20200000703334808,
                0,
                -0.6820000410079956
            ],
            "type" : "VEC3"
        },
        {
            "bufferView" : 5,
            "componentType" : 5126,
            "count" : 4,
            "type" : "VEC3"
        },
        {
            "bufferView" : 6,
            "componentType" : 5123,
            "count" : 6,
            "type" : "SCALAR"
        },
        {
            "bufferView" : 7,
            "componentType" : 5126,
            "count" : 117,
            "max" : [
                0.4660000205039978,
                0,
                0
            ],
            "min" : [
                0.03400000184774399,
                0,
                -0.6910000443458557
            ],
            "type" : "VEC3"
        },
        {
            "bufferView" : 8,
            "componentType" : 5126,
            "count" : 117,
            "type" : "VEC3"
        },
        {
            "bufferView" : 9,
            "componentType" : 5123,
            "count" : 261,
            "type" : "SCALAR"
        },
        {
            "bufferView" : 10,
            "componentType" : 5126,
            "count" : 195,
            "max" : [
                0.4240000247955322,
                0,
                0.009000000543892384
            ],
            "min" : [
                0.06400000303983688,
                0,
                -0.6910000443458557
            ],
            "type" : "VEC3"
        },
        {
            "bufferView" : 11,
            "componentType" : 5126,
            "count" : 195,
            "type" : "VEC3"
        },
        {
            "bufferView" : 12,
            "componentType" : 5123,
            "count" : 435,
            "type" : "SCALAR"
        },
        {
            "bufferView" : 13,
            "componentType" : 5126,
            "count" : 19,
            "max" : [
                0.4710000157356262,
                0,
                0
            ],
            "min" : [
                0.01100000087171793,
                0,
                -0.6910000443458557
            ],
            "type" : "VEC3"
        },
        {
            "bufferView" : 14,
            "componentType" : 5126,
            "count" : 19,
            "type" : "VEC3"
        },
        {
            "bufferView" : 15,
            "componentType" : 5123,
            "count" : 45,
            "type" : "SCALAR"
        }
    ],
    "bufferViews" : [
        {
            "buffer" : 0,
            "byteLength" : 288,
            "byteOffset" : 0
        },
        {
            "buffer" : 0,
            "byteLength" : 288,
            "byteOffset" : 288
        },
        {
            "buffer" : 0,
            "byteLength" : 192,
            "byteOffset" : 576
        },
        {
            "buffer" : 0,
            "byteLength" : 72,
            "byteOffset" : 768
        },
        {
            "buffer" : 0,
            "byteLength" : 48,
            "byteOffset" : 840
        },
        {
            "buffer" : 0,
            "byteLength" : 48,
            "byteOffset" : 888
        },
        {
            "buffer" : 0,
            "byteLength" : 12,
            "byteOffset" : 936
        },
        {
            "buffer" : 0,
            "byteLength" : 1404,
            "byteOffset" : 948
        },
        {
            "buffer" : 0,
            "byteLength" : 1404,
            "byteOffset" : 2352
        },
        {
            "buffer" : 0,
            "byteLength" : 522,
            "byteOffset" : 3756
        },
        {
            "buffer" : 0,
            "byteLength" : 2340,
            "byteOffset" : 4280
        },
        {
            "buffer" : 0,
            "byteLength" : 2340,
            "byteOffset" : 6620
        },
        {
            "buffer" : 0,
            "byteLength" : 870,
            "byteOffset" : 8960
        },
        {
            "buffer" : 0,
            "byteLength" : 228,
            "byteOffset" : 9832
        },
        {
            "buffer" : 0,
            "byteLength" : 228,
            "byteOffset" : 10060
        },
        {
            "buffer" : 0,
            "byteLength" : 90,
            "byteOffset" : 10288
        }
    ],
    "buffers" : [
        {
            "byteLength" : 10380,
            "uri" : "data:application/octet-stream;base64,"
        }
    ]
}
