{
    "asset" : {
        "generator" : "Khronos glTF Blender I/O v0.9.36",
        "version" : "2.0"
    },
    "scene" : 0,
    "scenes" : [
        {
            "name" : "Scene",
            "nodes" : [
                0,
                1
            ]
        }
    ],
    "nodes" : [
        {
            "mesh" : 0,
            "name" : "Text",
            "rotation" : [
                0.6569849252700806,
                0.26147815585136414,
                -0.26147815585136414,
                0.6569849252700806
            ],
            "scale" : [
                2.75581955909729,
                0.7922115325927734,
                1.8317458629608154
            ]
        },
        {
            "mesh" : 1,
            "name" : "Text.001",
            "rotation" : [
                0.6569849252700806,
                0.26147815585136414,
                -0.26147815585136414,
                0.6569849252700806
            ],
            "scale" : [
                2.75581955909729,
                0.7922115325927734,
                1.8317458629608154
            ]
        }
    ],
    "materials" : [
        {
            "doubleSided" : true,
            "name" : "RED.001",
            "pbrMetallicRoughness" : {
                "baseColorFactor" : [
                    1,
                    0,
                    0.00039527303306385875,
                    1
                ],
                "metallicFactor" : 0,
                "roughnessFactor" : 0.5
            }
        },
        {
            "doubleSided" : true,
            "name" : "RED",
            "pbrMetallicRoughness" : {
                "metallicFactor" : 0,
                "roughnessFactor" : 0.5
            }
        }
    ],
    "meshes" : [
        {
            "name" : "Text",
            "primitives" : [
                {
                    "attributes" : {
                        "POSITION" : 0,
                        "NORMAL" : 1
                    },
                    "indices" : 2,
                    "material" : 0
                }
            ]
        },
        {
            "name" : "Text.001",
            "primitives" : [
                {
                    "attributes" : {
                        "POSITION" : 3,
                        "NORMAL" : 4
                    },
                    "indices" : 5,
                    "material" : 1
                }
            ]
        }
    ],
    "accessors" : [
        {
            "bufferView" : 0,
            "componentType" : 5126,
            "count" : 1815,
            "max" : [
                1.6881942749023438,
                0.1510000079870224,
                0.33378952741622925
            ],
            "min" : [
                0.8427048921585083,
                -0.1510000079870224,
                -0.30646491050720215
            ],
            "type" : "VEC3"
        },
        {
            "bufferView" : 1,
            "componentType" : 5126,
            "count" : 1815,
            "type" : "VEC3"
        },
        {
            "bufferView" : 2,
            "componentType" : 5123,
            "count" : 7824,
            "type" : "SCALAR"
        },
        {
            "bufferView" : 3,
            "componentType" : 5126,
            "count" : 2736,
            "max" : [
                0.8040353059768677,
                0.1510000079870224,
                0.33378952741622925
            ],
            "min" : [
                -1.7163347005844116,
                -0.1510000079870224,
                -0.30646491050720215
            ],
            "type" : "VEC3"
        },
        {
            "bufferView" : 4,
            "componentType" : 5126,
            "count" : 2736,
            "type" : "VEC3"
        },
        {
            "bufferView" : 5,
            "componentType" : 5123,
            "count" : 11652,
            "type" : "SCALAR"
        }
    ],
    "bufferViews" : [
        {
            "buffer" : 0,
            "byteLength" : 21780,
            "byteOffset" : 0
        },
        {
            "buffer" : 0,
            "byteLength" : 21780,
            "byteOffset" : 21780
        },
        {
            "buffer" : 0,
            "byteLength" : 15648,
            "byteOffset" : 43560
        },
        {
            "buffer" : 0,
            "byteLength" : 32832,
            "byteOffset" : 59208
        },
        {
            "buffer" : 0,
            "byteLength" : 32832,
            "byteOffset" : 92040
        },
        {
            "buffer" : 0,
            "byteLength" : 23304,
            "byteOffset" : 124872
        }
    ],
    "buffers" : [
        {
            "byteLength" : 148176,
            "uri" : "data:application/octet-stream;base64,"
        }
    ]
}
